<svg width="96" height="72" viewBox="0 0 96 72" fill="none" xmlns="http://www.w3.org/2000/svg">
<path id="Vector" d="M8 36C8 24.8 14.4 15.2 24 10.8C28.8305 9.85536 28.8305 2.94464 24 2C10 7.2 0 20.4 0 36C0 51.6 10 64.8 24 70C28.8305 69.0554 28.8305 62.1446 24 61.2C14.4 56.8 8 47.2 8 36ZM60 0C40 0 24 16 24 36C24 56 40 72 60 72C80 72 96 56 96 36C96 16 80 0 60 0ZM80 40H64V56C63.3492 60.6371 56.6508 60.6371 56 56V40H40C35.482 39.247 35.482 32.753 40 32H56V16C56.6711 11.3863 63.3289 11.3863 64 16V32H80C84.7082 32.5885 84.7082 39.4115 80 40Z" fill="#1A1BE0"/>
</svg>
