<svg width="153" height="135" viewBox="0 0 153 135" fill="none" xmlns="http://www.w3.org/2000/svg">
<g id="Group 7496">
<g id="&#234;&#183;&#184;&#235;&#166;&#188;1">
<g id="Vector">
<path d="M24 74.7079V60.3875C24 59.4945 24.77 58.7977 25.655 58.89L38.8248 60.2632C40.088 60.3949 40.6267 61.9443 39.7194 62.8363L26.5496 75.7834C25.6002 76.7168 24 76.0417 24 74.7079Z" fill="url(#paint0_linear_468_26175)"/>
<path d="M70 74.7079V60.3875C70 59.4945 70.77 58.7977 71.655 58.89L84.8248 60.2632C86.088 60.3949 86.6267 61.9443 85.7194 62.8363L72.5496 75.7834C71.6002 76.7168 70 76.0417 70 74.7079Z" fill="url(#paint1_linear_468_26175)"/>
<path d="M128.5 74.7079V60.3875C128.5 59.4945 127.73 58.7977 126.845 58.89L113.675 60.2632C112.412 60.3949 111.873 61.9443 112.781 62.8363L125.95 75.7834C126.9 76.7168 128.5 76.0417 128.5 74.7079Z" fill="url(#paint2_linear_468_26175)"/>
<path d="M4 32.1189C4 14.3801 18.3269 0 36 0H117C134.673 0 149 14.3801 149 32.1189C149 49.8578 134.673 64.2379 117 64.2379H36C18.3269 64.2379 4 49.8578 4 32.1189Z" fill="url(#paint3_linear_468_26175)"/>
</g>
<g id="Group 7475">
<path id="Rectangle 2451" d="M0 120.898C0 109.024 9.62588 99.3977 21.5 99.3977C33.3741 99.3977 43 109.024 43 120.898V132.363C43 133.819 41.8193 135 40.3628 135H2.63721C1.18072 135 0 133.819 0 132.363V120.898Z" fill="#8F8FE2"/>
<path id="Subtract" fill-rule="evenodd" clip-rule="evenodd" d="M21.5 99.3977C9.62589 99.3977 0 109.024 0 120.898V132.363C0 133.819 1.18073 135 2.63721 135H33.366C33.804 128.736 34.1051 119.168 33.0565 112.948C31.9006 106.092 28.9322 101.852 27.1674 100.153C25.3618 99.6604 23.4616 99.3977 21.5 99.3977Z" fill="#ABABE0"/>
<path id="Rectangle 2452" d="M31.7119 113.232C31.7119 112.341 32.4339 111.619 33.3244 111.619C34.215 111.619 34.9369 112.341 34.9369 113.232V135H31.7119V113.232Z" fill="#6C6CD2"/>
<path id="Rectangle 2453" d="M8.0625 113.232C8.0625 112.341 8.78444 111.619 9.675 111.619C10.5656 111.619 11.2875 112.341 11.2875 113.232V135H8.0625V113.232Z" fill="#6C6CD2"/>
<ellipse id="Ellipse 378" cx="21.5" cy="91.4271" rx="10.75" ry="10.6275" fill="#F1F1F7"/>
<path id="Subtract_2" fill-rule="evenodd" clip-rule="evenodd" d="M19.9752 101.948C22.8182 99.8197 24.7242 95.9046 24.7242 91.4271C24.7242 86.9494 22.8179 83.034 19.9746 80.9055C20.4729 80.8355 20.9823 80.7993 21.5002 80.7993C27.4372 80.7993 32.2502 85.5574 32.2502 91.4269C32.2502 97.2963 27.4372 102.054 21.5002 102.054C20.9825 102.054 20.4733 102.018 19.9752 101.948Z" fill="#E4E4F4"/>
</g>
<g id="Group 7477">
<path id="Rectangle 2451_2" d="M55 120.898C55 109.024 64.6259 99.3977 76.5 99.3977C88.3741 99.3977 98 109.024 98 120.898V132.363C98 133.819 96.8193 135 95.3628 135H57.6372C56.1807 135 55 133.819 55 132.363V120.898Z" fill="#D78FE2"/>
<path id="Subtract_3" fill-rule="evenodd" clip-rule="evenodd" d="M76.5 99.3977C64.6259 99.3977 55 109.024 55 120.898V132.363C55 133.819 56.1807 135 57.6372 135H88.366C88.804 128.736 89.1051 119.168 88.0565 112.948C86.9006 106.092 83.9322 101.852 82.1674 100.153C80.3618 99.6604 78.4616 99.3977 76.5 99.3977Z" fill="#D9ABE0"/>
<path id="Rectangle 2452_2" d="M86.7119 113.232C86.7119 112.341 87.4339 111.619 88.3244 111.619C89.215 111.619 89.9369 112.341 89.9369 113.232V135H86.7119V113.232Z" fill="#C56CD2"/>
<path id="Rectangle 2453_2" d="M63.0625 113.232C63.0625 112.341 63.7844 111.619 64.675 111.619C65.5656 111.619 66.2875 112.341 66.2875 113.232V135H63.0625V113.232Z" fill="#C56CD2"/>
<path id="Rectangle 2457" d="M73.561 82.1251C75.3223 80.3574 78.1777 80.3574 79.939 82.1251L85.6791 87.8866C87.4403 89.6544 87.4403 92.5205 85.6791 94.2882L79.939 100.05C78.1777 101.817 75.3223 101.817 73.561 100.05L67.8209 94.2882C66.0597 92.5205 66.0597 89.6544 67.8209 87.8866L73.561 82.1251Z" fill="#F7F1F7"/>
<path id="Subtract_4" fill-rule="evenodd" clip-rule="evenodd" d="M77.0526 101.253C78.0937 101.178 79.1138 100.741 79.9098 99.9423L85.6372 94.1936C87.3945 92.4298 87.3945 89.57 85.6372 87.8062L79.9098 82.0575C79.035 81.1794 77.8897 80.7385 76.7432 80.7346L79.5586 86.3865C80.9117 89.1027 80.9117 93.5066 79.5586 96.2228L77.0526 101.253Z" fill="#F2E4F4"/>
</g>
<g id="Group 7478">
<path id="Rectangle 2451_3" d="M110 120.898C110 109.024 119.626 99.3977 131.5 99.3977C143.374 99.3977 153 109.024 153 120.898V132.363C153 133.819 151.819 135 150.363 135H112.637C111.181 135 110 133.819 110 132.363V120.898Z" fill="#ABE28F"/>
<path id="Subtract_5" fill-rule="evenodd" clip-rule="evenodd" d="M131.5 99.3977C119.626 99.3977 110 109.024 110 120.898V132.363C110 133.819 111.181 135 112.637 135H143.366C143.804 128.736 144.105 119.168 143.056 112.948C141.901 106.092 138.932 101.852 137.167 100.153C135.362 99.6604 133.462 99.3977 131.5 99.3977Z" fill="#BDE0AB"/>
<path id="Rectangle 2452_3" d="M141.712 113.232C141.712 112.341 142.434 111.619 143.324 111.619C144.215 111.619 144.937 112.341 144.937 113.232V135H141.712V113.232Z" fill="#8ED26C"/>
<path id="Rectangle 2453_3" d="M118.062 113.232C118.062 112.341 118.784 111.619 119.675 111.619C120.566 111.619 121.288 112.341 121.288 113.232V135H118.062V113.232Z" fill="#8ED26C"/>
<path id="Polygon 43" d="M129.771 82.2787C130.543 80.9475 132.458 80.9475 133.229 82.2787L142.253 97.8573C143.028 99.1956 142.066 100.874 140.524 100.874H122.477C120.934 100.874 119.972 99.1956 120.748 97.8573L129.771 82.2787Z" fill="#F3F7F1"/>
<path id="Subtract_6" fill-rule="evenodd" clip-rule="evenodd" d="M135.055 100.874H140.524C142.066 100.874 143.028 99.1956 142.253 97.8573L133.229 82.2787C132.766 81.4784 131.888 81.1592 131.095 81.3212L136.733 97.397C137.487 98.9368 136.554 100.867 135.055 100.874Z" fill="#E9F4E4"/>
</g>
<g id="Group 7481">
<g id="Group 7480">
<path id="Union" d="M83.2707 41.1073C83.2707 39.9143 83.7078 38.7689 84.4414 37.8281C86.9111 34.6607 88.9998 30.9239 88.9998 27.3444C88.9998 18.5876 83.4034 13.0483 76.4999 13.0483C69.5964 13.0483 64 18.5876 64 27.3444C64 30.9239 66.0887 34.6607 68.5584 37.8281C69.292 38.7689 69.7291 39.9143 69.7291 41.1073V46.7769C69.7291 48.9366 71.5946 50.6874 73.8958 50.6874H79.104C81.4052 50.6874 83.2707 48.9366 83.2707 46.7769V41.1073Z" fill="#F7ED95"/>
<path id="Subtract_7" fill-rule="evenodd" clip-rule="evenodd" d="M78.711 37.8281C77.9774 38.7689 77.5403 39.9143 77.5403 41.1073V46.7769C77.5403 48.8543 75.8143 50.5534 73.6348 50.6799C73.7211 50.6849 73.8082 50.6874 73.8959 50.6874H79.1041C81.4053 50.6874 83.2708 48.9366 83.2708 46.7769V41.1073C83.2708 39.9143 83.7079 38.7689 84.4415 37.8281C86.9112 34.6607 88.9999 30.9239 88.9999 27.3444C88.9999 18.5876 83.4035 13.0483 76.5 13.0483C75.5141 13.0483 74.5549 13.1613 73.6348 13.3805C79.1574 14.6961 83.2694 19.8381 83.2694 27.3444C83.2694 30.9239 81.1808 34.6607 78.711 37.8281Z" fill="#FAE94F"/>
</g>
<path id="Subtract_8" fill-rule="evenodd" clip-rule="evenodd" d="M69.7295 42.8665V46.7772C69.7295 48.937 71.595 50.6878 73.8961 50.6878H79.1044C81.4056 50.6878 83.271 48.937 83.271 46.7772V42.8665H69.7295Z" fill="#3F40E9"/>
</g>
</g>
</g>
<defs>
<linearGradient id="paint0_linear_468_26175" x1="4.27344" y1="75.9611" x2="149.273" y2="75.9611" gradientUnits="userSpaceOnUse">
<stop stop-color="#DFDFDF"/>
<stop offset="0.229167" stop-color="#BABAE1"/>
<stop offset="0.380208" stop-color="#A2A3E3"/>
<stop offset="0.567708" stop-color="#8485E5"/>
<stop offset="0.692708" stop-color="#7071E6"/>
<stop offset="1" stop-color="#3F40E9"/>
</linearGradient>
<linearGradient id="paint1_linear_468_26175" x1="4.27344" y1="75.9611" x2="149.273" y2="75.9611" gradientUnits="userSpaceOnUse">
<stop stop-color="#DFDFDF"/>
<stop offset="0.229167" stop-color="#BABAE1"/>
<stop offset="0.380208" stop-color="#A2A3E3"/>
<stop offset="0.567708" stop-color="#8485E5"/>
<stop offset="0.692708" stop-color="#7071E6"/>
<stop offset="1" stop-color="#3F40E9"/>
</linearGradient>
<linearGradient id="paint2_linear_468_26175" x1="4.27344" y1="75.9611" x2="149.273" y2="75.9611" gradientUnits="userSpaceOnUse">
<stop stop-color="#DFDFDF"/>
<stop offset="0.229167" stop-color="#BABAE1"/>
<stop offset="0.380208" stop-color="#A2A3E3"/>
<stop offset="0.567708" stop-color="#8485E5"/>
<stop offset="0.692708" stop-color="#7071E6"/>
<stop offset="1" stop-color="#3F40E9"/>
</linearGradient>
<linearGradient id="paint3_linear_468_26175" x1="4.27344" y1="75.9611" x2="149.273" y2="75.9611" gradientUnits="userSpaceOnUse">
<stop stop-color="#DFDFDF"/>
<stop offset="0.229167" stop-color="#BABAE1"/>
<stop offset="0.380208" stop-color="#A2A3E3"/>
<stop offset="0.567708" stop-color="#8485E5"/>
<stop offset="0.692708" stop-color="#7071E6"/>
<stop offset="1" stop-color="#3F40E9"/>
</linearGradient>
</defs>
</svg>
