<svg width="100" height="40" viewBox="0 0 100 40" fill="none" xmlns="http://www.w3.org/2000/svg">
<path d="M11.9596 12.7983C12.4319 12.006 13.6085 12.006 14.0809 12.7983L18.1159 19.5678L20.948 14.7949C21.4198 13.9999 22.6 13.9999 23.0717 14.7949L28.6106 24.1297H35.0729C35.5648 24.1297 36.0111 24.4083 36.2114 24.841C36.7728 26.0536 36.9352 26.4231 37.4549 27.6764C37.6184 28.0705 37.3171 28.5 36.8764 28.5H25.8995L23.0716 23.7341C22.5999 22.9391 21.4197 22.9391 20.948 23.7341L18.12 28.5H4.7277C3.78316 28.5 3.19348 27.5051 3.66704 26.7105L11.9596 12.7983Z" fill="url(#paint0_linear_396_22811)"/>
<path d="M24.8569 9.12687C24.8569 10.5776 23.6355 11.7537 22.1289 11.7537C20.6222 11.7537 19.4008 10.5776 19.4008 9.12687C19.4008 7.67609 20.6222 6.5 22.1289 6.5C23.6355 6.5 24.8569 7.67609 24.8569 9.12687Z" fill="#8788E4"/>
<path d="M57.8218 14.8195C57.9266 15.0199 57.9857 15.2003 57.9988 15.3607C58.025 15.521 58.0381 15.7549 58.0381 16.0622V27.1863C58.0381 28.1083 57.789 28.6495 57.2907 28.8098C57.0416 28.89 56.7269 28.9301 56.3466 28.9301C55.9664 28.9301 55.6648 28.8967 55.4419 28.8299C55.219 28.763 55.0485 28.6829 54.9305 28.5893C54.8125 28.4958 54.7207 28.3622 54.6551 28.1885C54.5896 27.9613 54.5568 27.6139 54.5568 27.1462V20.4317C54.229 20.8459 53.7504 21.5073 53.121 22.416C52.4916 23.3112 52.0917 23.8724 51.9212 24.0996C51.7507 24.3268 51.6327 24.4871 51.5672 24.5806C51.5016 24.6608 51.3377 24.7811 51.0755 24.9414C50.8263 25.0884 50.551 25.1619 50.2494 25.1619C49.9609 25.1619 49.6921 25.0951 49.443 24.9615C49.207 24.8145 49.0365 24.6742 48.9316 24.5406L48.7742 24.3201C48.512 23.986 47.9941 23.2778 47.2204 22.1955C46.4468 21.0998 46.0272 20.5118 45.9617 20.4317V27.1863C45.9617 27.4936 45.9485 27.7275 45.9223 27.8878C45.9092 28.0348 45.8502 28.2018 45.7453 28.3889C45.5486 28.7497 45.0372 28.9301 44.2112 28.9301C43.4113 28.9301 42.913 28.7497 42.7164 28.3889C42.6115 28.2018 42.5459 28.0281 42.5197 27.8678C42.5066 27.7074 42.5 27.4669 42.5 27.1462V16.0221C42.5 15.7148 42.5066 15.4876 42.5197 15.3406C42.5459 15.1803 42.6115 14.9999 42.7164 14.7995C42.913 14.452 43.4244 14.2783 44.2505 14.2783C44.6045 14.2783 44.9061 14.3251 45.1552 14.4186C45.4175 14.4988 45.588 14.5857 45.6666 14.6792L45.7846 14.7995L50.2494 20.7724C52.4785 17.7659 53.9667 15.7816 54.7141 14.8195C54.937 14.4587 55.4615 14.2783 56.2876 14.2783C57.1268 14.2783 57.6382 14.4587 57.8218 14.8195Z" fill="#3F40E9"/>
<path d="M59.3189 23.6787C59.3189 22.0752 59.8696 20.7524 60.971 19.7101C62.0724 18.6678 63.3312 18.1467 64.7474 18.1467C66.1635 18.1467 67.4157 18.6678 68.504 19.7101C69.5924 20.739 70.1365 22.0552 70.1365 23.6586C70.1365 24.7677 69.8546 25.7565 69.2908 26.6251C68.727 27.4803 68.0386 28.115 67.2256 28.5292C66.4257 28.9301 65.5931 29.1305 64.7277 29.1305C63.8623 29.1305 63.0231 28.9167 62.2101 28.4891C61.3972 28.0482 60.7088 27.4068 60.1449 26.5649C59.5942 25.7098 59.3189 24.7477 59.3189 23.6787ZM63.4296 25.1218C63.8492 25.4425 64.2753 25.6029 64.708 25.6029C65.1407 25.6029 65.5734 25.4358 66.0061 25.1018C66.4389 24.7677 66.6552 24.2733 66.6552 23.6186C66.6552 22.9638 66.452 22.4761 66.0455 22.1554C65.639 21.8347 65.1997 21.6743 64.7277 21.6743C64.2556 21.6743 63.8164 21.8414 63.4099 22.1754C63.0034 22.5095 62.8002 23.0039 62.8002 23.6586C62.8002 24.3 63.01 24.7878 63.4296 25.1218Z" fill="#3F40E9"/>
<path d="M71.627 20.1511C71.627 19.8437 71.6335 19.6166 71.6466 19.4696C71.6728 19.3092 71.7319 19.1289 71.8236 18.9284C72.0072 18.581 72.5186 18.4073 73.3578 18.4073C73.9872 18.4073 74.433 18.5209 74.6952 18.748C74.9181 18.9351 75.0362 19.2224 75.0493 19.6099C75.0624 19.7435 75.0689 19.9373 75.0689 20.1912V27.2064C75.0689 27.5137 75.0558 27.7475 75.0296 27.9079C75.0165 28.0549 74.9575 28.2286 74.8526 28.429C74.6821 28.7764 74.1773 28.9501 73.3381 28.9501C72.512 28.9501 72.0072 28.7697 71.8236 28.409C71.7319 28.2085 71.6728 28.0348 71.6466 27.8878C71.6335 27.7409 71.627 27.507 71.627 27.1863V20.1511Z" fill="#3F40E9"/>
<path d="M82.403 18.3872C83.7142 18.3872 84.8025 18.9017 85.6679 19.9306C86.5465 20.9461 86.9857 22.1888 86.9857 23.6587V27.1863C86.9857 27.4936 86.9726 27.7275 86.9464 27.8878C86.9333 28.0348 86.8808 28.2018 86.7891 28.3889C86.6055 28.7497 86.0941 28.9301 85.2549 28.9301C84.3239 28.9301 83.7863 28.6829 83.6421 28.1885C83.5634 27.9613 83.5241 27.6206 83.5241 27.1663V23.6386C83.5241 23.0908 83.3667 22.6632 83.052 22.3558C82.7505 22.0485 82.3374 21.8948 81.8129 21.8948C81.3015 21.8948 80.882 22.0552 80.5541 22.3759C80.2394 22.6966 80.0821 23.1175 80.0821 23.6386V27.1863C80.0821 27.4936 80.069 27.7275 80.0428 27.8878C80.0296 28.0348 79.9706 28.2018 79.8657 28.3889C79.6953 28.7497 79.1905 28.9301 78.3513 28.9301C77.5252 28.9301 77.0204 28.7497 76.8368 28.3889C76.745 28.1885 76.686 28.0148 76.6598 27.8678C76.6467 27.7074 76.6401 27.4736 76.6401 27.1663V20.0709C76.6401 19.7769 76.6467 19.5564 76.6598 19.4095C76.686 19.2491 76.7516 19.0754 76.8565 18.8883C77.04 18.5543 77.5449 18.3872 78.3709 18.3872C79.1708 18.3872 79.6625 18.5409 79.8461 18.8482C79.9772 19.0754 80.0428 19.3493 80.0428 19.67C80.0952 19.5765 80.2132 19.4429 80.3968 19.2692C80.5804 19.0954 80.7574 18.9551 80.9278 18.8482C81.3737 18.5409 81.8654 18.3872 82.403 18.3872Z" fill="#3F40E9"/>
<path d="M95.1373 27.6273C94.639 28.2954 93.8457 28.6294 92.7574 28.6294C91.669 28.6294 90.6463 28.1217 89.6891 27.1061C88.745 26.0772 88.2729 24.8813 88.2729 23.5184C88.2729 22.1554 88.7515 20.9595 89.7087 19.9306C90.6659 18.9017 91.7149 18.3872 92.8557 18.3872C93.3015 18.3872 93.708 18.4741 94.0752 18.6478C94.4423 18.8082 94.6914 18.9618 94.8226 19.1088C94.9668 19.2424 95.0782 19.3694 95.1569 19.4896C95.1963 19.1155 95.3274 18.8349 95.5503 18.6478C95.7863 18.4474 96.16 18.3472 96.6714 18.3472C97.1828 18.3472 97.5565 18.3872 97.7925 18.4674C98.0285 18.5476 98.1924 18.6879 98.2842 18.8883C98.3891 19.0754 98.4481 19.2424 98.4612 19.3894C98.4874 19.5364 98.5006 19.7636 98.5006 20.0709V28.3689C98.5006 29.9055 97.9761 31.1416 96.9271 32.0769C95.8781 33.0256 94.698 33.5 93.3868 33.5C92.3902 33.5 91.4396 33.2528 90.5348 32.7584C89.6301 32.264 89.1777 31.8163 89.1777 31.4155C89.1777 30.8944 89.3744 30.4334 89.7678 30.0325C90.0169 29.7519 90.207 29.5581 90.3381 29.4512C90.4824 29.3443 90.6463 29.2909 90.8299 29.2909C91.0134 29.2909 91.2036 29.371 91.4002 29.5314C92.0296 30.0258 92.7115 30.273 93.4458 30.273C93.944 30.273 94.3505 30.0726 94.6652 29.6717C94.9799 29.2708 95.1373 28.7898 95.1373 28.2286V27.6273ZM91.6363 23.5384C91.6363 23.966 91.8002 24.3535 92.128 24.7009C92.4689 25.0483 92.8754 25.2221 93.3474 25.2221C93.8326 25.2221 94.2325 25.0483 94.5472 24.7009C94.8619 24.3401 95.0192 23.9526 95.0192 23.5384C95.0192 23.1108 94.8684 22.7166 94.5669 22.3558C94.2653 21.9817 93.8588 21.7946 93.3474 21.7946C92.836 21.7946 92.423 21.975 92.1083 22.3358C91.7936 22.6966 91.6363 23.0975 91.6363 23.5384Z" fill="#3F40E9"/>
<path d="M75.1032 15.2538C75.1032 16.2224 74.3327 17.0076 73.3822 17.0076C72.4318 17.0076 71.6612 16.2224 71.6612 15.2538C71.6612 14.2852 72.4318 13.5 73.3822 13.5C74.3327 13.5 75.1032 14.2852 75.1032 15.2538Z" fill="#3F40E9"/>
<defs>
<linearGradient id="paint0_linear_396_22811" x1="3.56412" y1="28.4263" x2="37.5641" y2="28.4263" gradientUnits="userSpaceOnUse">
<stop stop-color="#DFDFDF"/>
<stop offset="0.229167" stop-color="#BABAE1"/>
<stop offset="0.380208" stop-color="#A2A3E3"/>
<stop offset="0.567708" stop-color="#8485E5"/>
<stop offset="0.692708" stop-color="#7071E6"/>
<stop offset="1" stop-color="#3F40E9"/>
</linearGradient>
</defs>
</svg>
