<svg width="18" height="18" viewBox="0 0 18 18" fill="none" xmlns="http://www.w3.org/2000/svg">
<g id="&#236;&#149;&#132;&#236;&#157;&#180;&#236;&#189;&#152; 16">
<path id="Vector" d="M15.75 3.75V14.25C15.75 15.0825 15.0825 15.75 14.25 15.75H3.75C2.9175 15.75 2.25 15.075 2.25 14.25V3.75C2.25 2.925 2.925 2.25 3.75 2.25H4.5V0.75H6V2.25H12V0.75H13.5V2.25H14.25C15.0825 2.25 15.75 2.925 15.75 3.75ZM3.75 5.25H14.25V3.75H3.75V5.25Z" fill="#9495A8"/>
<g id="Vector_2">
<path d="M6.75 8.25H5.25V9.75H6.75V8.25Z" fill="#F6F6FE"/>
<path d="M11.25 8.25V9.75H12.75V8.25H11.25Z" fill="#F6F6FE"/>
<path d="M8.25 8.25V9.75H9.75V8.25H8.25Z" fill="#F6F6FE"/>
<path d="M6.75 11.25H5.25V12.75H6.75V11.25Z" fill="#F6F6FE"/>
<path d="M11.25 11.25V12.75H12.75V11.25H11.25Z" fill="#F6F6FE"/>
<path d="M8.25 11.25V12.75H9.75V11.25H8.25Z" fill="#F6F6FE"/>
</g>
</g>
</svg>
