<svg width="44" height="44" viewBox="0 0 44 44" fill="none" xmlns="http://www.w3.org/2000/svg">
<g id="SNS/kakaotalk">
<circle id="Ellipse 20" cx="22" cy="22" r="21.75" stroke="#A6A6A6" stroke-width="0.5"/>
<g id="Group">
<g id="Clip path group">
<mask id="mask0_533_46485" style="mask-type:luminance" maskUnits="userSpaceOnUse" x="11" y="11" width="22" height="22">
<g id="B">
<path id="Vector" d="M32.25 20H22V24.25H27.9C27.35 26.95 25.05 28.5 22 28.5C18.4 28.5 15.5 25.6 15.5 22C15.5 18.4 18.4 15.5 22 15.5C23.55 15.5 24.95 16.05 26.05 16.95L29.25 13.75C27.3 12.05 24.8 11 22 11C15.9 11 11 15.9 11 22C11 28.1 15.9 33 22 33C27.5 33 32.5 29 32.5 22C32.5 21.35 32.4 20.65 32.25 20Z" fill="white"/>
</g>
</mask>
<g mask="url(#mask0_533_46485)">
<path id="Vector_2" d="M10 28.5V15.5L18.5 22L10 28.5Z" fill="#FBBC05"/>
</g>
</g>
<g id="Clip path group_2">
<mask id="mask1_533_46485" style="mask-type:luminance" maskUnits="userSpaceOnUse" x="11" y="11" width="22" height="22">
<g id="B_2">
<path id="Vector_3" d="M32.25 20H22V24.25H27.9C27.35 26.95 25.05 28.5 22 28.5C18.4 28.5 15.5 25.6 15.5 22C15.5 18.4 18.4 15.5 22 15.5C23.55 15.5 24.95 16.05 26.05 16.95L29.25 13.75C27.3 12.05 24.8 11 22 11C15.9 11 11 15.9 11 22C11 28.1 15.9 33 22 33C27.5 33 32.5 29 32.5 22C32.5 21.35 32.4 20.65 32.25 20Z" fill="white"/>
</g>
</mask>
<g mask="url(#mask1_533_46485)">
<path id="Vector_4" d="M10 15.5L18.5 22L22 18.95L34 17V10H10V15.5Z" fill="#EA4335"/>
</g>
</g>
<g id="Clip path group_3">
<mask id="mask2_533_46485" style="mask-type:luminance" maskUnits="userSpaceOnUse" x="11" y="11" width="22" height="22">
<g id="B_3">
<path id="Vector_5" d="M32.25 20H22V24.25H27.9C27.35 26.95 25.05 28.5 22 28.5C18.4 28.5 15.5 25.6 15.5 22C15.5 18.4 18.4 15.5 22 15.5C23.55 15.5 24.95 16.05 26.05 16.95L29.25 13.75C27.3 12.05 24.8 11 22 11C15.9 11 11 15.9 11 22C11 28.1 15.9 33 22 33C27.5 33 32.5 29 32.5 22C32.5 21.35 32.4 20.65 32.25 20Z" fill="white"/>
</g>
</mask>
<g mask="url(#mask2_533_46485)">
<path id="Vector_6" d="M10 28.5L25 17L28.95 17.5L34 10V34H10V28.5Z" fill="#34A853"/>
</g>
</g>
<g id="Clip path group_4">
<mask id="mask3_533_46485" style="mask-type:luminance" maskUnits="userSpaceOnUse" x="11" y="11" width="22" height="22">
<g id="B_4">
<path id="Vector_7" d="M32.25 20H22V24.25H27.9C27.35 26.95 25.05 28.5 22 28.5C18.4 28.5 15.5 25.6 15.5 22C15.5 18.4 18.4 15.5 22 15.5C23.55 15.5 24.95 16.05 26.05 16.95L29.25 13.75C27.3 12.05 24.8 11 22 11C15.9 11 11 15.9 11 22C11 28.1 15.9 33 22 33C27.5 33 32.5 29 32.5 22C32.5 21.35 32.4 20.65 32.25 20Z" fill="white"/>
</g>
</mask>
<g mask="url(#mask3_533_46485)">
<path id="Vector_8" d="M34 34L18.5 22L16.5 20.5L34 15.5V34Z" fill="#4285F4"/>
</g>
</g>
</g>
</g>
</svg>
