<svg width="18" height="18" viewBox="0 0 18 18" fill="none" xmlns="http://www.w3.org/2000/svg">
<g id="&#236;&#149;&#132;&#236;&#157;&#180;&#236;&#189;&#152; 16">
<path id="Vector" d="M8.25 1.5C8.64782 1.5 9.02936 1.65804 9.31066 1.93934C9.59196 2.22064 9.75 2.60218 9.75 3V15C9.75 15.3978 9.59196 15.7794 9.31066 16.0607C9.02936 16.342 8.64782 16.5 8.25 16.5H1.5V1.5H8.25ZM3 7.5V10.5H8.25V7.5H3ZM3 12V15H8.25V12H3ZM3 3V6H8.25V3H3ZM11.25 8.25H13.5V6H15V8.25H17.25V9.75H15V12H13.5V9.75H11.25V8.25Z" fill="current"/>
</g>
</svg>
