<svg width="44" height="44" viewBox="0 0 44 44" fill="none" xmlns="http://www.w3.org/2000/svg">
<g id="SNS/kakaotalk">
<rect width="44" height="44" fill="white"/>
<circle id="Ellipse 20" cx="22" cy="22" r="21.75" stroke="#A6A6A6" stroke-width="0.5"/>
<g id="Group 316">
<path id="Vector" d="M22.0638 10.6178C15.2191 10.6178 9.69922 15.0337 9.69922 20.3946C9.69922 23.8743 11.9955 26.9213 15.4399 28.6612L14.2741 33.0153C14.2521 33.0806 14.2487 33.1506 14.2643 33.2177C14.2799 33.2847 14.3139 33.3462 14.3624 33.395C14.4332 33.4574 14.5242 33.4919 14.6185 33.4922C14.6968 33.4859 14.771 33.455 14.8305 33.4039L19.847 30.0213C20.5875 30.1235 21.3339 30.1766 22.0814 30.1802C28.9173 30.1802 34.446 25.7644 34.446 20.3946C34.446 15.0249 28.8996 10.6178 22.0638 10.6178Z" fill="#392020"/>
<g id="Group 7233">
<path id="Vector_2" d="M14.025 19.1295H12.774C12.619 19.134 12.4658 19.0943 12.3325 19.015C12.2733 18.978 12.2224 18.929 12.183 18.8713C12.1436 18.8136 12.1166 18.7484 12.1036 18.6798C12.0996 18.6363 12.0996 18.5925 12.1036 18.549C12.0997 18.4676 12.1155 18.3864 12.1496 18.3124C12.1838 18.2384 12.2353 18.1737 12.2998 18.1238C12.4423 18.0206 12.6144 17.9661 12.7904 17.9684H16.5597C16.716 17.9629 16.8702 18.0058 17.0013 18.0911C17.0619 18.1265 17.1138 18.1751 17.1534 18.233C17.193 18.291 17.2192 18.357 17.2302 18.4264C17.2342 18.4671 17.2342 18.5082 17.2302 18.549C17.2341 18.6316 17.2183 18.7139 17.1842 18.7893C17.1501 18.8646 17.0986 18.9307 17.034 18.9823C16.8949 19.0854 16.7245 19.1374 16.5516 19.1295H15.3415V23.4304C15.3464 23.522 15.3322 23.6136 15.2998 23.6994C15.2674 23.7853 15.2176 23.8635 15.1534 23.9291C15.0918 23.9918 15.0179 24.041 14.9362 24.0733C14.8545 24.1057 14.7669 24.1206 14.6792 24.1172C14.5256 24.1215 14.3753 24.0725 14.254 23.9782C14.1385 23.8862 14.0601 23.7554 14.0332 23.6102C14.0251 23.5505 14.0251 23.49 14.0332 23.4304L14.025 19.1295Z" fill="#FEE500"/>
<path id="Vector_3" d="M18.0136 18.2872C18.0495 18.1527 18.134 18.0362 18.2507 17.9602C18.375 17.8897 18.5167 17.8557 18.6595 17.8621H18.9702C19.1217 17.8566 19.2718 17.8934 19.4036 17.9684C19.5432 18.0623 19.6425 18.2053 19.6816 18.369L21.3169 22.9887C21.3593 23.1092 21.3948 23.2322 21.4232 23.3567C21.426 23.4085 21.426 23.4603 21.4232 23.512C21.4259 23.5917 21.4113 23.6711 21.3802 23.7445C21.3491 23.8179 21.3024 23.8837 21.2433 23.9372C21.186 23.9959 21.1172 24.0422 21.0413 24.0732C20.9653 24.1041 20.8838 24.119 20.8018 24.1171C20.6756 24.1296 20.549 24.0994 20.4422 24.0311C20.3354 23.9629 20.2547 23.8607 20.213 23.741L19.8696 22.7353H17.7192L17.3758 23.741C17.3352 23.8631 17.2535 23.9673 17.1447 24.0358C17.0358 24.1044 16.9066 24.1331 16.7789 24.1171C16.6407 24.1207 16.5052 24.0775 16.3946 23.9944C16.2869 23.9087 16.2142 23.7866 16.1902 23.6511C16.1859 23.6048 16.1859 23.5583 16.1902 23.512C16.1762 23.4309 16.1762 23.348 16.1902 23.2668C16.1902 23.1769 16.2475 23.0787 16.2802 22.9887L18.0136 18.2872ZM18.8312 19.3584L18.0545 21.8114H19.5998L18.8312 19.3584Z" fill="#FEE500"/>
<path id="Vector_4" d="M21.8327 18.5491C21.8244 18.3656 21.8891 18.1863 22.0126 18.0504C22.0754 17.987 22.1508 17.9375 22.2339 17.9051C22.317 17.8727 22.4059 17.8581 22.495 17.8622C22.6482 17.8604 22.7977 17.9093 22.9202 18.0013C23.0338 18.0972 23.1092 18.2306 23.1328 18.3773C23.1409 18.4343 23.1409 18.4922 23.1328 18.5491V22.85H25.3813C25.5372 22.8479 25.6904 22.8904 25.8229 22.9725C25.8824 23.0092 25.9335 23.0581 25.973 23.1159C26.0124 23.1736 26.0393 23.239 26.0518 23.3078C26.0518 23.3078 26.0518 23.3896 26.0518 23.4305C26.0557 23.5119 26.0399 23.593 26.0057 23.667C25.9716 23.741 25.9201 23.8058 25.8556 23.8556C25.713 23.9589 25.541 24.0133 25.365 24.011H22.6013C22.4253 24.0223 22.2504 23.9765 22.1026 23.8802C21.9704 23.7814 21.8823 23.6345 21.8573 23.4714C21.8513 23.3815 21.8513 23.2913 21.8573 23.2015L21.8327 18.5491Z" fill="#FEE500"/>
<path id="Vector_5" d="M26.5727 18.549C26.5678 18.3661 26.632 18.188 26.7526 18.0503C26.8751 17.9389 27.0323 17.8732 27.1976 17.8642C27.363 17.8553 27.5263 17.9037 27.6602 18.0012C27.7762 18.0962 27.8545 18.2296 27.8809 18.3773C27.885 18.4344 27.885 18.4919 27.8809 18.549V20.5522L29.9496 18.1647C30.0293 18.0832 30.1139 18.0068 30.2031 17.9358C30.287 17.8858 30.3833 17.8602 30.4811 17.8621C30.624 17.8613 30.7637 17.9042 30.8817 17.9848C30.9373 18.0222 30.9848 18.0705 31.0213 18.1267C31.0578 18.1829 31.0826 18.2459 31.0943 18.3119C31.0976 18.3281 31.0976 18.3448 31.0943 18.361C31.0903 18.3799 31.0903 18.3993 31.0943 18.4182C31.094 18.5042 31.0715 18.5888 31.0289 18.6635C30.9855 18.7427 30.9334 18.8166 30.8735 18.8842L29.5162 20.3724L30.9873 22.7113L31.1515 22.9888C31.2364 23.106 31.3026 23.2357 31.3478 23.3732V23.414C31.3572 23.5087 31.3436 23.6044 31.308 23.6927C31.2724 23.781 31.2159 23.8593 31.1433 23.9209C31.0069 24.024 30.8401 24.0787 30.6691 24.0763C30.5555 24.081 30.4427 24.0556 30.3421 24.0027C30.2332 23.9296 30.1434 23.8315 30.0804 23.7165L28.5596 21.2636L27.8319 22.024V23.3894C27.8368 23.5724 27.7725 23.7505 27.652 23.8882C27.5874 23.9513 27.5105 24.0007 27.4261 24.033C27.3418 24.0654 27.2517 24.0801 27.1614 24.0763C27.0105 24.0795 26.8632 24.0303 26.7444 23.9373C26.6289 23.8452 26.5505 23.7146 26.5236 23.5694C26.5156 23.5097 26.5156 23.4491 26.5236 23.3894L26.5727 18.549Z" fill="#FEE500"/>
</g>
</g>
</g>
</svg>
