<svg width="18" height="18" viewBox="0 0 18 18" fill="none" xmlns="http://www.w3.org/2000/svg">
<g id="&#236;&#149;&#132;&#236;&#157;&#180;&#236;&#189;&#152; 20">
<path id="Vector" d="M15.75 3.05C15.75 2.60817 15.3918 2.25 14.95 2.25H10.55C10.1082 2.25 9.75 2.60817 9.75 3.05V5.95C9.75 6.39183 10.1082 6.75 10.55 6.75H14.95C15.3918 6.75 15.75 6.39183 15.75 5.95V3.05ZM8.25 3.05C8.25 2.60817 7.89183 2.25 7.45 2.25H3.05C2.60817 2.25 2.25 2.60817 2.25 3.05V8.95C2.25 9.39183 2.60817 9.75 3.05 9.75H7.45C7.89183 9.75 8.25 9.39183 8.25 8.95V3.05ZM15.75 9.05C15.75 8.60817 15.3918 8.25 14.95 8.25H10.55C10.1082 8.25 9.75 8.60817 9.75 9.05V14.95C9.75 15.3918 10.1082 15.75 10.55 15.75H14.95C15.3918 15.75 15.75 15.3918 15.75 14.95V9.05ZM8.25 12.05C8.25 11.6082 7.89183 11.25 7.45 11.25H3.05C2.60817 11.25 2.25 11.6082 2.25 12.05V14.95C2.25 15.3918 2.60817 15.75 3.05 15.75H7.45C7.89183 15.75 8.25 15.3918 8.25 14.95V12.05Z" fill="current"/>
</g>
</svg>
