<svg width="16" height="16" viewBox="0 0 16 16" fill="none" xmlns="http://www.w3.org/2000/svg">
<g id="logout">
<path id="Vector" d="M11.1761 11.2533C10.986 11.4386 10.6667 11.304 10.6667 11.0385V9.8H6.3C6.13431 9.8 6 9.66569 6 9.5V7.5C6 7.33431 6.13431 7.2 6.3 7.2H10.6667V5.96149C10.6667 5.69605 10.986 5.56139 11.1761 5.74669L13.7797 8.2852C13.9005 8.40294 13.9005 8.59706 13.7797 8.7148L11.1761 11.2533ZM9.33333 2C9.68696 2 10.0261 2.13696 10.2761 2.38076C10.5262 2.62456 10.6667 2.95522 10.6667 3.3V4.6H9.33333V3.3H3.33333V13.7H9.33333V12.4H10.6667V13.7C10.6667 14.0448 10.5262 14.3754 10.2761 14.6192C10.0261 14.863 9.68696 15 9.33333 15H3.33333C2.97971 15 2.64057 14.863 2.39052 14.6192C2.14048 14.3754 2 14.0448 2 13.7V3.3C2 2.95522 2.14048 2.62456 2.39052 2.38076C2.64057 2.13696 2.97971 2 3.33333 2H9.33333Z" fill="#9495A8"/>
</g>
</svg>
