<svg width="18" height="18" viewBox="0 0 18 18" fill="none" xmlns="http://www.w3.org/2000/svg">
<g id="&#236;&#149;&#132;&#236;&#157;&#180;&#236;&#189;&#152; 20">
<path id="Vector" d="M7.1 15C7.32091 15 7.5 14.8209 7.5 14.6V10.9C7.5 10.6791 7.67909 10.5 7.9 10.5H10.1C10.3209 10.5 10.5 10.6791 10.5 10.9V14.6C10.5 14.8209 10.6791 15 10.9 15H13.85C14.0709 15 14.25 14.8209 14.25 14.6V9.4C14.25 9.17909 14.4291 9 14.65 9H15.4576C15.8242 9 15.9977 8.54792 15.7252 8.30268L9.26759 2.49083C9.11546 2.35392 8.88454 2.35392 8.73241 2.49083L2.2748 8.30268C2.00231 8.54792 2.17579 9 2.54238 9H3.35C3.57091 9 3.75 9.17909 3.75 9.4V14.6C3.75 14.8209 3.92909 15 4.15 15H7.1Z" fill="current"/>
</g>
</svg>
