<svg width="16" height="16" viewBox="0 0 16 16" fill="none" xmlns="http://www.w3.org/2000/svg">
<g id="&#236;&#149;&#132;&#236;&#157;&#180;&#236;&#189;&#152; 16">
<path id="Vector" d="M8 3.66699C8.61884 3.66699 9.21233 3.91282 9.64992 4.35041C10.0875 4.78799 10.3333 5.38149 10.3333 6.00033C10.3333 6.61916 10.0875 7.21266 9.64992 7.65024C9.21233 8.08783 8.61884 8.33366 8 8.33366C7.38116 8.33366 6.78767 8.08783 6.35008 7.65024C5.9125 7.21266 5.66667 6.61916 5.66667 6.00033C5.66667 5.38149 5.9125 4.78799 6.35008 4.35041C6.78767 3.91282 7.38116 3.66699 8 3.66699ZM3.33333 5.33366C3.70667 5.33366 4.05333 5.43366 4.35333 5.61366C4.25333 6.56699 4.53333 7.51366 5.10667 8.25366C4.77333 8.89366 4.10667 9.33366 3.33333 9.33366C2.8029 9.33366 2.29419 9.12295 1.91912 8.74787C1.54405 8.3728 1.33333 7.86409 1.33333 7.33366C1.33333 6.80323 1.54405 6.29452 1.91912 5.91945C2.29419 5.54437 2.8029 5.33366 3.33333 5.33366ZM12.6667 5.33366C13.1971 5.33366 13.7058 5.54437 14.0809 5.91945C14.456 6.29452 14.6667 6.80323 14.6667 7.33366C14.6667 7.86409 14.456 8.3728 14.0809 8.74787C13.7058 9.12295 13.1971 9.33366 12.6667 9.33366C11.8933 9.33366 11.2267 8.89366 10.8933 8.25366C11.4667 7.51366 11.7467 6.56699 11.6467 5.61366C11.9467 5.43366 12.2933 5.33366 12.6667 5.33366ZM3.66667 12.167C3.66667 10.787 5.60667 9.66699 8 9.66699C10.3933 9.66699 12.3333 10.787 12.3333 12.167V13.3337H3.66667V12.167ZM0 13.3337V12.3337C0 11.407 1.26 10.627 2.96667 10.4003C2.57333 10.8537 2.33333 11.4803 2.33333 12.167V13.3337H0ZM16 13.3337H13.6667V12.167C13.6667 11.4803 13.4267 10.8537 13.0333 10.4003C14.74 10.627 16 11.407 16 12.3337V13.3337Z" fill="#9495A8"/>
</g>
</svg>
