<svg width="18" height="18" viewBox="0 0 18 18" fill="none" xmlns="http://www.w3.org/2000/svg">
<g id="&#236;&#149;&#132;&#236;&#157;&#180;&#236;&#189;&#152; 16">
<path id="Vector" d="M14.775 9.675L10.5 13.95H8.775V12.225L13.05 7.95L14.775 9.675ZM17.325 9.075C17.325 9.3 17.1 9.525 16.875 9.75L15 11.625L14.325 10.95L16.275 9L15.825 8.55L15.3 9.075L13.575 7.35L15.225 5.775C15.375 5.625 15.675 5.625 15.9 5.775L16.95 6.825C17.1 6.975 17.1 7.275 16.95 7.5C16.8 7.65 16.65 7.8 16.65 7.95C16.65 8.1 16.8 8.25 16.95 8.4C17.175 8.625 17.4 8.85 17.325 9.075ZM2.25 15V3H7.5V6.75H11.25V7.875L12.75 6.375V6L8.25 1.5H2.25C1.425 1.5 0.75 2.175 0.75 3V15C0.75 15.825 1.425 16.5 2.25 16.5H11.25C12.075 16.5 12.75 15.825 12.75 15H2.25ZM8.25 12.825C8.1 12.825 7.95 12.9 7.875 12.9L7.5 11.25H6.375L4.8 12.525L5.25 10.5H4.125L3.375 14.25H4.5L6.675 12.3L7.125 14.025H7.875L8.25 13.95V12.825Z" fill="#9495A8"/>
</g>
</svg>
