<svg width="17" height="16" viewBox="0 0 17 16" fill="none" xmlns="http://www.w3.org/2000/svg">
<g id="&#236;&#149;&#132;&#236;&#157;&#180;&#236;&#189;&#152; 16">
<path id="Vector" d="M8.49989 10.333C7.88105 10.333 7.28756 10.0872 6.84998 9.64959C6.41239 9.212 6.16656 8.61851 6.16656 7.99967C6.16656 7.38084 6.41239 6.78734 6.84998 6.34976C7.28756 5.91217 7.88105 5.66634 8.49989 5.66634C9.11873 5.66634 9.71222 5.91217 10.1498 6.34976C10.5874 6.78734 10.8332 7.38084 10.8332 7.99967C10.8332 8.61851 10.5874 9.212 10.1498 9.64959C9.71222 10.0872 9.11873 10.333 8.49989 10.333ZM13.4532 8.64634C13.4799 8.43301 13.4999 8.21967 13.4999 7.99967C13.4999 7.77967 13.4799 7.55967 13.4532 7.33301L14.8599 6.24634C14.9866 6.14634 15.0199 5.96634 14.9399 5.81967L13.6066 3.51301C13.5266 3.36634 13.3466 3.30634 13.1999 3.36634L11.5399 4.03301C11.1932 3.77301 10.8332 3.54634 10.4132 3.37967L10.1666 1.61301C10.1399 1.45301 9.99989 1.33301 9.83323 1.33301H7.16656C6.99989 1.33301 6.85989 1.45301 6.83323 1.61301L6.58656 3.37967C6.16656 3.54634 5.80656 3.77301 5.45989 4.03301L3.79989 3.36634C3.65323 3.30634 3.47323 3.36634 3.39323 3.51301L2.05989 5.81967C1.97323 5.96634 2.01323 6.14634 2.13989 6.24634L3.54656 7.33301C3.51989 7.55967 3.49989 7.77967 3.49989 7.99967C3.49989 8.21967 3.51989 8.43301 3.54656 8.64634L2.13989 9.75301C2.01323 9.85301 1.97323 10.033 2.05989 10.1797L3.39323 12.4863C3.47323 12.633 3.65323 12.6863 3.79989 12.633L5.45989 11.9597C5.80656 12.2263 6.16656 12.453 6.58656 12.6197L6.83323 14.3863C6.85989 14.5463 6.99989 14.6663 7.16656 14.6663H9.83323C9.99989 14.6663 10.1399 14.5463 10.1666 14.3863L10.4132 12.6197C10.8332 12.4463 11.1932 12.2263 11.5399 11.9597L13.1999 12.633C13.3466 12.6863 13.5266 12.633 13.6066 12.4863L14.9399 10.1797C15.0199 10.033 14.9866 9.85301 14.8599 9.75301L13.4532 8.64634Z" fill="#9495A8"/>
</g>
</svg>
