<svg width="17" height="16" viewBox="0 0 17 16" fill="none" xmlns="http://www.w3.org/2000/svg">
<g id="swap-horizontal">
<g id="Vector">
<path d="M4.50078 8.16608C4.50078 7.80971 4.06992 7.63125 3.81794 7.88323L1.58362 10.1175C1.42741 10.2738 1.42741 10.527 1.58362 10.6832L3.81794 12.9175C4.06992 13.1695 4.50078 12.9911 4.50078 12.6347V11.2004H9.70078C9.92169 11.2004 10.1008 11.0213 10.1008 10.8004V10.0004C10.1008 9.77948 9.92169 9.60039 9.70078 9.60039H4.50078V8.16608Z" fill="#9495A8"/>
<path d="M15.4179 5.31755C15.5741 5.47376 15.5741 5.72702 15.4179 5.88323L13.1836 8.11755C12.9316 8.36953 12.5008 8.19107 12.5008 7.83471V6.40039L7.30078 6.40039C7.07987 6.40039 6.90078 6.2213 6.90078 6.00039V5.20039C6.90078 4.97948 7.07987 4.80039 7.30078 4.80039L12.5008 4.80039V3.36608C12.5008 3.00971 12.9316 2.83125 13.1836 3.08323L15.4179 5.31755Z" fill="#9495A8"/>
</g>
</g>
</svg>
