<svg width="17" height="16" viewBox="0 0 17 16" fill="none" xmlns="http://www.w3.org/2000/svg">
<g id="&#236;&#149;&#132;&#236;&#157;&#180;&#236;&#189;&#152; 16">
<path id="Vector" d="M8.49935 2.6665C9.20659 2.6665 9.88487 2.94746 10.385 3.44755C10.8851 3.94765 11.166 4.62593 11.166 5.33317C11.166 6.04041 10.8851 6.71869 10.385 7.21879C9.88487 7.71889 9.20659 7.99984 8.49935 7.99984C7.7921 7.99984 7.11383 7.71889 6.61373 7.21879C6.11363 6.71869 5.83268 6.04041 5.83268 5.33317C5.83268 4.62593 6.11363 3.94765 6.61373 3.44755C7.11383 2.94746 7.7921 2.6665 8.49935 2.6665ZM8.49935 9.33317C11.446 9.33317 13.8327 10.5265 13.8327 11.9998V13.3332H3.16602V11.9998C3.16602 10.5265 5.55268 9.33317 8.49935 9.33317Z" fill="#9495A8"/>
</g>
</svg>
